<?xml version="1.0" encoding="utf-8"?>
<!-- Generator: Adobe Illustrator 22.1.0, SVG Export Plug-In . SVG Version: 6.00 Build 0)  -->
<svg version="1.1" id="logo-dark" xmlns="http://www.w3.org/2000/svg" xmlns:xlink="http://www.w3.org/1999/xlink" x="0px" y="0px"
	 viewBox="0 0 104.5 35.4" style="enable-background:new 0 0 104.5 35.4;" xml:space="preserve">
<style type="text/css">
	.st0{fill:#1D1D1D;}
</style>
<g>
	<path class="st0" d="M0,0.4h3.7h10.6c6.2,0,9.9,3.6,9.9,8.1c0,3.6-1.6,6.7-7.8,8.5c5.5,0.5,9.7,3.2,9.7,9c0,4.6-3.6,8.9-11.4,8.9H0
		V0.4z M6.7,2.9V16c5.2,0,10.5-0.3,10.5-6.4c0-2.6-1-4.9-2.9-5.9c-1.8-1-4-0.9-7-0.9L6.7,2.9L6.7,2.9z M6.7,18.5v14h4.5
		c4.1-0.1,7.9-2.1,7.9-6.7c0-4.7-3.6-7.2-9.9-7.2L6.7,18.5L6.7,18.5z"/>
	<path class="st0" d="M41.8,35.4c-7.4,0-11.3-5.6-11.3-11.5c0-6.7,4.6-12.4,11.6-12.4c4,0,9.7,2.1,10,8.6v0.3c0,0.2,0,0.4,0,0.6v1.4
		H36c0.2,4.8,3.2,8.1,8,8.1l0,0c2.8,0,5.2-1.5,6.8-2.6l0.3,2.5c-1.2,1.9-4.6,4.9-9.1,4.9L41.8,35.4L41.8,35.4z M41.4,13.7
		c-2.6,0-5.4,2.3-5.4,6.4h10C46,16.3,44.4,13.7,41.4,13.7z"/>
	<path class="st0" d="M62.7,18.9v16h-5.8V13.7l4.3-2.9l1.1,4.7c1.5-2.5,3.8-4.1,7.5-4.1c4.6,0,7.8,2.9,7.8,8.3v15.1h-5.8V21.1
		c0-2.5-0.1-3.6-0.9-4.7c-0.7-1.1-1.9-1.6-3.6-1.6C63.9,14.9,63,17.6,62.7,18.9z"/>
	<path class="st0" d="M94.2,35.4c-7.4,0-11.3-5.6-11.3-11.5c0-6.7,4.6-12.4,11.6-12.4c4,0,9.7,2.1,10,8.6v0.3c0,0.2,0,0.4,0,0.6v1.4
		H88.4c0.2,4.8,3.2,8.1,8,8.1l0,0c2.8,0,5.2-1.5,6.8-2.6l0.3,2.5c-1.2,1.9-4.6,4.9-9.1,4.9L94.2,35.4L94.2,35.4z M93.8,13.7
		c-2.6,0-5.4,2.3-5.4,6.4h10C98.4,16.3,96.8,13.7,93.8,13.7z M96.9,0h5.1l0.7,1.4l-10.5,8l-0.8-0.9c0.8-1.2,4.1-6.6,5.4-8.3L96.9,0z
		"/>
</g>
</svg>
